<svg xmlns="http://www.w3.org/2000/svg" xmlns:xlink="http://www.w3.org/1999/xlink" width="40" zoomAndPan="magnify" viewBox="0 0 30 30.000001" height="40" preserveAspectRatio="xMidYMid meet" version="1.0"><defs><clipPath id="969b6ab539"><path d="M 16 6.148438 L 25.179688 6.148438 L 25.179688 22.84375 L 16 22.84375 Z M 16 6.148438 " clip-rule="nonzero"/></clipPath><clipPath id="5dddb14ddc"><path d="M 4.859375 6.148438 L 14 6.148438 L 14 22.84375 L 4.859375 22.84375 Z M 4.859375 6.148438 " clip-rule="nonzero"/></clipPath></defs><g clip-path="url(#969b6ab539)"><path fill="#29acff" d="M 16.757812 6.148438 L 16.757812 9.570312 L 21.703125 14.511719 L 16.757812 19.453125 L 16.757812 22.875 L 25.121094 14.511719 Z M 16.757812 6.148438 " fill-opacity="1" fill-rule="nonzero"/></g><g clip-path="url(#5dddb14ddc)"><path fill="#29acff" d="M 13.238281 9.570312 L 13.238281 6.148438 L 4.875 14.511719 L 13.238281 22.875 L 13.238281 19.453125 L 8.296875 14.511719 Z M 13.238281 9.570312 " fill-opacity="1" fill-rule="nonzero"/></g><path fill="#29acff" d="M 10.914062 14.511719 L 15 10.425781 L 19.082031 14.511719 L 15 18.59375 Z M 10.914062 14.511719 " fill-opacity="1" fill-rule="nonzero"/></svg>