<svg xmlns="http://www.w3.org/2000/svg" xmlns:xlink="http://www.w3.org/1999/xlink" width="50" zoomAndPan="magnify" viewBox="0 0 37.5 30.000001" height="40" preserveAspectRatio="xMidYMid meet" version="1.0"><defs><g/><clipPath id="298ea28b10"><path d="M 5 12.296875 L 7.621094 12.296875 L 7.621094 15.925781 L 5 15.925781 Z M 5 12.296875 " clip-rule="nonzero"/></clipPath><clipPath id="989a66f226"><path d="M 3.265625 12.296875 L 5 12.296875 L 5 15.925781 L 3.265625 15.925781 Z M 3.265625 12.296875 " clip-rule="nonzero"/></clipPath><clipPath id="258278ab78"><path d="M 34 12 L 36.652344 12 L 36.652344 15 L 34 15 Z M 34 12 " clip-rule="nonzero"/></clipPath></defs><g clip-path="url(#298ea28b10)"><path fill="#29acff" d="M 5.714844 12.296875 L 5.714844 13 L 6.730469 14.015625 L 5.714844 15.03125 L 5.714844 15.734375 L 7.433594 14.015625 Z M 5.714844 12.296875 " fill-opacity="1" fill-rule="nonzero"/></g><g clip-path="url(#989a66f226)"><path fill="#29acff" d="M 4.992188 13 L 4.992188 12.296875 L 3.273438 14.015625 L 4.992188 15.734375 L 4.992188 15.03125 L 3.976562 14.015625 Z M 4.992188 13 " fill-opacity="1" fill-rule="nonzero"/></g><path fill="#29acff" d="M 4.515625 14.015625 L 5.351562 13.175781 L 6.191406 14.015625 L 5.351562 14.855469 Z M 4.515625 14.015625 " fill-opacity="1" fill-rule="nonzero"/><g fill="#ffffff" fill-opacity="1"><g transform="translate(8.648848, 14.140542)"><g><path d="M 0.625 -1.3125 L 1.203125 -1.3125 L 1.828125 -0.015625 L 1.828125 0 L 1.40625 0 L 1.28125 -0.265625 L 0.53125 -0.265625 L 0.421875 0 L 0 0 L 0 -0.015625 Z M 0.90625 -1.046875 L 0.671875 -0.546875 L 1.140625 -0.546875 L 0.921875 -1.046875 Z M 0.90625 -1.046875 "/></g></g></g><g fill="#ffffff" fill-opacity="1"><g transform="translate(10.669508, 14.140542)"><g><path d="M 0.59375 0 L 0.21875 0 L 0.21875 -1.3125 L 0.875 -1.3125 L 1.46875 -0.265625 L 1.484375 -0.265625 L 1.484375 -1.3125 L 1.859375 -1.3125 L 1.859375 0 L 1.203125 0 L 0.609375 -1.046875 L 0.59375 -1.046875 Z M 0.59375 0 "/></g></g></g><g fill="#ffffff" fill-opacity="1"><g transform="translate(12.937911, 14.140542)"><g><path d="M 1.046875 0 L 0.65625 0 L 0.65625 -0.984375 L 0.015625 -0.984375 L 0.015625 -1.3125 L 1.6875 -1.3125 L 1.6875 -0.984375 L 1.046875 -0.984375 Z M 1.046875 0 "/></g></g></g><g fill="#ffffff" fill-opacity="1"><g transform="translate(14.840503, 14.140542)"><g><path d="M 1.046875 0.03125 C 0.816406 0.03125 0.632812 0.0078125 0.5 -0.03125 C 0.375 -0.0703125 0.28125 -0.140625 0.21875 -0.234375 C 0.164062 -0.335938 0.140625 -0.476562 0.140625 -0.65625 C 0.140625 -0.832031 0.164062 -0.96875 0.21875 -1.0625 C 0.28125 -1.164062 0.375 -1.238281 0.5 -1.28125 C 0.632812 -1.320312 0.816406 -1.34375 1.046875 -1.34375 C 1.285156 -1.34375 1.46875 -1.320312 1.59375 -1.28125 C 1.726562 -1.238281 1.820312 -1.164062 1.875 -1.0625 C 1.9375 -0.96875 1.96875 -0.832031 1.96875 -0.65625 C 1.96875 -0.476562 1.9375 -0.335938 1.875 -0.234375 C 1.820312 -0.140625 1.726562 -0.0703125 1.59375 -0.03125 C 1.46875 0.0078125 1.285156 0.03125 1.046875 0.03125 Z M 1.046875 -0.3125 C 1.210938 -0.3125 1.375 -0.316406 1.53125 -0.328125 L 1.53125 -0.984375 C 1.351562 -0.992188 1.191406 -1 1.046875 -1 C 0.910156 -1 0.753906 -0.992188 0.578125 -0.984375 L 0.578125 -0.328125 C 0.734375 -0.316406 0.890625 -0.3125 1.046875 -0.3125 Z M 1.046875 -1.59375 L 0.59375 -1.4375 L 0.53125 -1.625 L 1 -1.765625 L 1.09375 -1.765625 L 1.546875 -1.625 L 1.5 -1.4375 Z M 1.046875 -1.59375 "/></g></g></g><g fill="#ffffff" fill-opacity="1"><g transform="translate(17.132132, 14.140542)"><g><path d="M 0.59375 0 L 0.21875 0 L 0.21875 -1.3125 L 0.875 -1.3125 L 1.46875 -0.265625 L 1.484375 -0.265625 L 1.484375 -1.3125 L 1.859375 -1.3125 L 1.859375 0 L 1.203125 0 L 0.609375 -1.046875 L 0.59375 -1.046875 Z M 0.59375 0 "/></g></g></g><g fill="#ffffff" fill-opacity="1"><g transform="translate(19.400535, 14.140542)"><g><path d="M 1.421875 0 L 0.125 0 L 0.125 -0.3125 L 0.578125 -0.3125 L 0.578125 -1 L 0.125 -1 L 0.125 -1.3125 L 1.421875 -1.3125 L 1.421875 -1 L 0.96875 -1 L 0.96875 -0.3125 L 1.421875 -0.3125 Z M 1.421875 0 "/></g></g></g><g fill="#ffffff" fill-opacity="1"><g transform="translate(21.138611, 14.140542)"><g><path d="M 1.046875 0.03125 C 0.816406 0.03125 0.632812 0.0078125 0.5 -0.03125 C 0.375 -0.0703125 0.28125 -0.140625 0.21875 -0.234375 C 0.164062 -0.335938 0.140625 -0.476562 0.140625 -0.65625 C 0.140625 -0.832031 0.164062 -0.96875 0.21875 -1.0625 C 0.28125 -1.164062 0.375 -1.238281 0.5 -1.28125 C 0.632812 -1.320312 0.816406 -1.34375 1.046875 -1.34375 C 1.285156 -1.34375 1.46875 -1.320312 1.59375 -1.28125 C 1.726562 -1.238281 1.820312 -1.164062 1.875 -1.0625 C 1.9375 -0.96875 1.96875 -0.832031 1.96875 -0.65625 C 1.96875 -0.476562 1.9375 -0.335938 1.875 -0.234375 C 1.820312 -0.140625 1.726562 -0.0703125 1.59375 -0.03125 C 1.46875 0.0078125 1.285156 0.03125 1.046875 0.03125 Z M 1.046875 -0.3125 C 1.210938 -0.3125 1.375 -0.316406 1.53125 -0.328125 L 1.53125 -0.984375 C 1.351562 -0.992188 1.191406 -1 1.046875 -1 C 0.910156 -1 0.753906 -0.992188 0.578125 -0.984375 L 0.578125 -0.328125 C 0.734375 -0.316406 0.890625 -0.3125 1.046875 -0.3125 Z M 1.046875 -0.3125 "/></g></g></g><g fill="#ffffff" fill-opacity="1"><g transform="translate(23.430239, 14.140542)"><g/></g></g><g fill="#ffffff" fill-opacity="1"><g transform="translate(24.223792, 14.140542)"><g><path d="M 0.890625 0.03125 C 0.703125 0.03125 0.550781 0.0078125 0.4375 -0.03125 C 0.332031 -0.0703125 0.253906 -0.144531 0.203125 -0.25 C 0.160156 -0.351562 0.140625 -0.488281 0.140625 -0.65625 C 0.140625 -0.832031 0.160156 -0.96875 0.203125 -1.0625 C 0.253906 -1.164062 0.332031 -1.238281 0.4375 -1.28125 C 0.550781 -1.320312 0.703125 -1.34375 0.890625 -1.34375 C 1.171875 -1.34375 1.4375 -1.332031 1.6875 -1.3125 L 1.703125 -0.96875 C 1.484375 -0.988281 1.238281 -1.007812 0.96875 -1.03125 C 0.851562 -1.039062 0.722656 -1.046875 0.578125 -1.046875 L 0.578125 -0.265625 C 0.703125 -0.273438 0.832031 -0.28125 0.96875 -0.28125 C 1.1875 -0.289062 1.429688 -0.316406 1.703125 -0.359375 L 1.6875 0 C 1.445312 0.0195312 1.179688 0.03125 0.890625 0.03125 Z M 0.890625 0.03125 "/></g></g></g><g fill="#ffffff" fill-opacity="1"><g transform="translate(26.211548, 14.140542)"><g><path d="M 0.625 -1.3125 L 1.203125 -1.3125 L 1.828125 -0.015625 L 1.828125 0 L 1.40625 0 L 1.28125 -0.265625 L 0.53125 -0.265625 L 0.421875 0 L 0 0 L 0 -0.015625 Z M 0.90625 -1.046875 L 0.671875 -0.546875 L 1.140625 -0.546875 L 0.921875 -1.046875 Z M 0.90625 -1.046875 "/></g></g></g><g fill="#ffffff" fill-opacity="1"><g transform="translate(28.232207, 14.140542)"><g><path d="M 1.84375 -0.015625 L 1.84375 0 L 1.328125 0 L 0.859375 -0.453125 L 0.609375 -0.453125 L 0.609375 0 L 0.21875 0 L 0.21875 -1.3125 L 1.28125 -1.3125 C 1.46875 -1.3125 1.601562 -1.273438 1.6875 -1.203125 C 1.78125 -1.140625 1.828125 -1.035156 1.828125 -0.890625 C 1.828125 -0.753906 1.785156 -0.648438 1.703125 -0.578125 C 1.628906 -0.503906 1.515625 -0.460938 1.359375 -0.453125 Z M 1.40625 -1.015625 L 0.609375 -1.015625 L 0.609375 -0.734375 L 1.40625 -0.734375 Z M 1.40625 -1.015625 "/></g></g></g><g fill="#ffffff" fill-opacity="1"><g transform="translate(30.372867, 14.140542)"><g><path d="M 1.546875 0 L 0.21875 0 L 0.21875 -1.3125 L 0.609375 -1.3125 L 0.609375 -0.34375 L 1.546875 -0.34375 Z M 1.546875 0 "/></g></g></g><g fill="#ffffff" fill-opacity="1"><g transform="translate(32.14191, 14.140542)"><g><path d="M 1.046875 0.03125 C 0.816406 0.03125 0.632812 0.0078125 0.5 -0.03125 C 0.375 -0.0703125 0.28125 -0.140625 0.21875 -0.234375 C 0.164062 -0.335938 0.140625 -0.476562 0.140625 -0.65625 C 0.140625 -0.832031 0.164062 -0.96875 0.21875 -1.0625 C 0.28125 -1.164062 0.375 -1.238281 0.5 -1.28125 C 0.632812 -1.320312 0.816406 -1.34375 1.046875 -1.34375 C 1.285156 -1.34375 1.46875 -1.320312 1.59375 -1.28125 C 1.726562 -1.238281 1.820312 -1.164062 1.875 -1.0625 C 1.9375 -0.96875 1.96875 -0.832031 1.96875 -0.65625 C 1.96875 -0.476562 1.9375 -0.335938 1.875 -0.234375 C 1.820312 -0.140625 1.726562 -0.0703125 1.59375 -0.03125 C 1.46875 0.0078125 1.285156 0.03125 1.046875 0.03125 Z M 1.046875 -0.3125 C 1.210938 -0.3125 1.375 -0.316406 1.53125 -0.328125 L 1.53125 -0.984375 C 1.351562 -0.992188 1.191406 -1 1.046875 -1 C 0.910156 -1 0.753906 -0.992188 0.578125 -0.984375 L 0.578125 -0.328125 C 0.734375 -0.316406 0.890625 -0.3125 1.046875 -0.3125 Z M 1.046875 -0.3125 "/></g></g></g><g clip-path="url(#258278ab78)"><g fill="#ffffff" fill-opacity="1"><g transform="translate(34.433538, 14.140542)"><g><path d="M 1.015625 0.03125 C 0.679688 0.03125 0.382812 0.015625 0.125 -0.015625 L 0.125 -0.359375 C 0.375 -0.328125 0.570312 -0.304688 0.71875 -0.296875 C 0.875 -0.285156 1.054688 -0.28125 1.265625 -0.28125 L 1.265625 -0.484375 L 0.5625 -0.546875 C 0.40625 -0.554688 0.285156 -0.59375 0.203125 -0.65625 C 0.128906 -0.71875 0.09375 -0.8125 0.09375 -0.9375 C 0.09375 -1.082031 0.144531 -1.1875 0.25 -1.25 C 0.351562 -1.3125 0.515625 -1.34375 0.734375 -1.34375 C 0.960938 -1.34375 1.25 -1.332031 1.59375 -1.3125 L 1.59375 -0.953125 C 1.34375 -0.984375 1.117188 -1.007812 0.921875 -1.03125 C 0.785156 -1.03125 0.648438 -1.035156 0.515625 -1.046875 L 0.515625 -0.828125 L 1.1875 -0.78125 C 1.351562 -0.769531 1.472656 -0.726562 1.546875 -0.65625 C 1.628906 -0.59375 1.671875 -0.5 1.671875 -0.375 C 1.671875 -0.238281 1.617188 -0.132812 1.515625 -0.0625 C 1.421875 0 1.253906 0.03125 1.015625 0.03125 Z M 1.015625 0.03125 "/></g></g></g></g><g fill="#ffffff" fill-opacity="1"><g transform="translate(14.157331, 16.325898)"><g><path d="M 0.546875 0 L 0.15625 0 L 0.15625 -1.265625 L 0.5625 -1.265625 C 0.6875 -1.265625 0.789062 -1.238281 0.875 -1.1875 C 0.96875 -1.144531 1.035156 -1.078125 1.078125 -0.984375 C 1.128906 -0.890625 1.15625 -0.773438 1.15625 -0.640625 C 1.15625 -0.503906 1.128906 -0.390625 1.078125 -0.296875 C 1.035156 -0.203125 0.96875 -0.128906 0.875 -0.078125 C 0.78125 -0.0234375 0.671875 0 0.546875 0 Z M 0.3125 -0.140625 L 0.53125 -0.140625 C 0.695312 -0.140625 0.816406 -0.179688 0.890625 -0.265625 C 0.960938 -0.359375 1 -0.484375 1 -0.640625 C 1 -0.796875 0.960938 -0.914062 0.890625 -1 C 0.816406 -1.09375 0.703125 -1.140625 0.546875 -1.140625 L 0.3125 -1.140625 Z M 0.3125 -0.140625 "/></g></g></g><g fill="#ffffff" fill-opacity="1"><g transform="translate(15.762511, 16.325898)"><g><path d="M 0.15625 0 L 0.15625 -1.265625 L 0.921875 -1.265625 L 0.921875 -1.140625 L 0.3125 -1.140625 L 0.3125 -0.703125 L 0.875 -0.703125 L 0.875 -0.5625 L 0.3125 -0.5625 L 0.3125 -0.140625 L 0.9375 -0.140625 L 0.9375 0 Z M 0.15625 0 "/></g></g></g><g fill="#ffffff" fill-opacity="1"><g transform="translate(17.156745, 16.325898)"><g><path d="M 0.203125 -1.265625 L 0.578125 -0.203125 L 0.59375 -0.203125 L 0.984375 -1.265625 L 1.140625 -1.265625 L 0.671875 0 L 0.515625 0 L 0.046875 -1.265625 Z M 0.203125 -1.265625 "/></g></g></g><g fill="#ffffff" fill-opacity="1"><g transform="translate(18.687474, 16.325898)"><g><path d="M 0.15625 0 L 0.15625 -1.265625 L 0.921875 -1.265625 L 0.921875 -1.140625 L 0.3125 -1.140625 L 0.3125 -0.703125 L 0.875 -0.703125 L 0.875 -0.5625 L 0.3125 -0.5625 L 0.3125 -0.140625 L 0.9375 -0.140625 L 0.9375 0 Z M 0.15625 0 "/></g></g></g><g fill="#ffffff" fill-opacity="1"><g transform="translate(20.081708, 16.325898)"><g><path d="M 0.15625 0 L 0.15625 -1.265625 L 0.3125 -1.265625 L 0.3125 -0.140625 L 0.90625 -0.140625 L 0.90625 0 Z M 0.15625 0 "/></g></g></g><g fill="#ffffff" fill-opacity="1"><g transform="translate(21.4139, 16.325898)"><g><path d="M 1.234375 -0.640625 C 1.234375 -0.503906 1.207031 -0.382812 1.15625 -0.28125 C 1.101562 -0.1875 1.035156 -0.113281 0.953125 -0.0625 C 0.867188 -0.0078125 0.773438 0.015625 0.671875 0.015625 C 0.554688 0.015625 0.457031 -0.0078125 0.375 -0.0625 C 0.289062 -0.113281 0.222656 -0.1875 0.171875 -0.28125 C 0.128906 -0.382812 0.109375 -0.503906 0.109375 -0.640625 C 0.109375 -0.773438 0.128906 -0.890625 0.171875 -0.984375 C 0.222656 -1.078125 0.289062 -1.148438 0.375 -1.203125 C 0.457031 -1.265625 0.554688 -1.296875 0.671875 -1.296875 C 0.773438 -1.296875 0.867188 -1.265625 0.953125 -1.203125 C 1.035156 -1.148438 1.101562 -1.078125 1.15625 -0.984375 C 1.207031 -0.890625 1.234375 -0.773438 1.234375 -0.640625 Z M 1.078125 -0.640625 C 1.078125 -0.742188 1.054688 -0.832031 1.015625 -0.90625 C 0.984375 -0.988281 0.9375 -1.046875 0.875 -1.078125 C 0.8125 -1.117188 0.742188 -1.140625 0.671875 -1.140625 C 0.585938 -1.140625 0.515625 -1.117188 0.453125 -1.078125 C 0.390625 -1.046875 0.335938 -0.988281 0.296875 -0.90625 C 0.265625 -0.832031 0.25 -0.742188 0.25 -0.640625 C 0.25 -0.523438 0.265625 -0.429688 0.296875 -0.359375 C 0.335938 -0.285156 0.390625 -0.226562 0.453125 -0.1875 C 0.515625 -0.144531 0.585938 -0.125 0.671875 -0.125 C 0.742188 -0.125 0.8125 -0.144531 0.875 -0.1875 C 0.9375 -0.226562 0.984375 -0.285156 1.015625 -0.359375 C 1.054688 -0.429688 1.078125 -0.523438 1.078125 -0.640625 Z M 1.078125 -0.640625 "/></g></g></g><g fill="#ffffff" fill-opacity="1"><g transform="translate(23.093533, 16.325898)"><g><path d="M 0.15625 0 L 0.15625 -1.265625 L 0.578125 -1.265625 C 0.679688 -1.265625 0.765625 -1.25 0.828125 -1.21875 C 0.890625 -1.1875 0.9375 -1.140625 0.96875 -1.078125 C 1 -1.015625 1.015625 -0.945312 1.015625 -0.875 C 1.015625 -0.789062 1 -0.71875 0.96875 -0.65625 C 0.9375 -0.601562 0.890625 -0.554688 0.828125 -0.515625 C 0.765625 -0.484375 0.6875 -0.46875 0.59375 -0.46875 L 0.3125 -0.46875 L 0.3125 0 Z M 0.3125 -0.609375 L 0.578125 -0.609375 C 0.679688 -0.609375 0.753906 -0.628906 0.796875 -0.671875 C 0.835938 -0.722656 0.859375 -0.789062 0.859375 -0.875 C 0.859375 -0.945312 0.835938 -1.007812 0.796875 -1.0625 C 0.753906 -1.113281 0.679688 -1.140625 0.578125 -1.140625 L 0.3125 -1.140625 Z M 0.3125 -0.609375 "/></g></g></g><g fill="#ffffff" fill-opacity="1"><g transform="translate(24.552292, 16.325898)"><g><path d="M 0.15625 -1.265625 L 0.34375 -1.265625 L 0.765625 -0.21875 L 0.78125 -0.21875 L 1.21875 -1.265625 L 1.40625 -1.265625 L 1.40625 0 L 1.265625 0 L 1.265625 -0.96875 L 1.25 -0.96875 L 0.84375 0 L 0.703125 0 L 0.3125 -0.96875 L 0.296875 -0.96875 L 0.296875 0 L 0.15625 0 Z M 0.15625 -1.265625 "/></g></g></g><g fill="#ffffff" fill-opacity="1"><g transform="translate(26.494985, 16.325898)"><g><path d="M 0.15625 0 L 0.15625 -1.265625 L 0.921875 -1.265625 L 0.921875 -1.140625 L 0.3125 -1.140625 L 0.3125 -0.703125 L 0.875 -0.703125 L 0.875 -0.5625 L 0.3125 -0.5625 L 0.3125 -0.140625 L 0.9375 -0.140625 L 0.9375 0 Z M 0.15625 0 "/></g></g></g><g fill="#ffffff" fill-opacity="1"><g transform="translate(27.889219, 16.325898)"><g><path d="M 1.15625 -1.265625 L 1.15625 0 L 1.015625 0 L 0.328125 -1 L 0.3125 -1 L 0.3125 0 L 0.15625 0 L 0.15625 -1.265625 L 0.296875 -1.265625 L 1 -0.265625 L 1.015625 -0.265625 L 1.015625 -1.265625 Z M 1.15625 -1.265625 "/></g></g></g><g fill="#ffffff" fill-opacity="1"><g transform="translate(29.553959, 16.325898)"><g><path d="M 0.078125 -1.140625 L 0.078125 -1.265625 L 1.046875 -1.265625 L 1.046875 -1.140625 L 0.640625 -1.140625 L 0.640625 0 L 0.484375 0 L 0.484375 -1.140625 Z M 0.078125 -1.140625 "/></g></g></g></svg>